<mxfile host="app.diagrams.net" modified="2024-06-12T12:46:52.855Z" agent="Mozilla/5.0 (Windows NT 10.0; Win64; x64) AppleWebKit/537.36 (KHTML, like Gecko) Chrome/118.0.0.0 Safari/537.36" etag="5lptUuOVT5wM-smqDNSp" version="24.5.3" type="device">
  <diagram id="1onDkTA8sMYNVeXfgzuM" name="第 1 页">
    <mxGraphModel dx="1434" dy="1958" grid="1" gridSize="10" guides="1" tooltips="1" connect="1" arrows="1" fold="1" page="1" pageScale="1" pageWidth="827" pageHeight="1169" math="0" shadow="0">
      <root>
        <mxCell id="0" />
        <mxCell id="1" parent="0" />
        <mxCell id="BthGRRnm2dixX5qSgWoB-2" value="&lt;font style=&quot;font-size: 40px;&quot;&gt;CPU DATAPATH&lt;/font&gt;" style="text;strokeColor=none;fillColor=none;html=1;fontSize=24;fontStyle=1;verticalAlign=middle;align=center;" parent="1" vertex="1">
          <mxGeometry x="1332.5" y="-480" width="410" height="164" as="geometry" />
        </mxCell>
        <mxCell id="BthGRRnm2dixX5qSgWoB-13" value="" style="group" parent="1" vertex="1" connectable="0">
          <mxGeometry x="361.5" y="130" width="50" height="100" as="geometry" />
        </mxCell>
        <mxCell id="BthGRRnm2dixX5qSgWoB-8" value="pc" style="rounded=0;whiteSpace=wrap;html=1;" parent="BthGRRnm2dixX5qSgWoB-13" vertex="1">
          <mxGeometry width="50" height="100" as="geometry" />
        </mxCell>
        <mxCell id="BthGRRnm2dixX5qSgWoB-9" value="" style="triangle;whiteSpace=wrap;html=1;rotation=90;aspect=fixed;" parent="BthGRRnm2dixX5qSgWoB-13" vertex="1">
          <mxGeometry x="10" y="-10" width="30" height="50" as="geometry" />
        </mxCell>
        <mxCell id="BthGRRnm2dixX5qSgWoB-19" style="edgeStyle=orthogonalEdgeStyle;rounded=0;orthogonalLoop=1;jettySize=auto;html=1;entryX=0;entryY=0.5;entryDx=0;entryDy=0;" parent="1" source="BthGRRnm2dixX5qSgWoB-18" target="BthGRRnm2dixX5qSgWoB-14" edge="1">
          <mxGeometry relative="1" as="geometry" />
        </mxCell>
        <mxCell id="BthGRRnm2dixX5qSgWoB-18" value="pc_sel" style="text;html=1;align=center;verticalAlign=middle;resizable=0;points=[];autosize=1;strokeColor=none;fillColor=none;" parent="1" vertex="1">
          <mxGeometry x="140" y="148" width="60" height="30" as="geometry" />
        </mxCell>
        <mxCell id="BthGRRnm2dixX5qSgWoB-21" value="RESET_PC" style="text;html=1;align=center;verticalAlign=middle;resizable=0;points=[];autosize=1;strokeColor=none;fillColor=none;" parent="1" vertex="1">
          <mxGeometry y="290" width="90" height="30" as="geometry" />
        </mxCell>
        <mxCell id="BthGRRnm2dixX5qSgWoB-23" style="edgeStyle=orthogonalEdgeStyle;rounded=0;orthogonalLoop=1;jettySize=auto;html=1;entryX=0.8;entryY=1;entryDx=0;entryDy=0;entryPerimeter=0;" parent="1" source="BthGRRnm2dixX5qSgWoB-21" target="BthGRRnm2dixX5qSgWoB-14" edge="1">
          <mxGeometry relative="1" as="geometry" />
        </mxCell>
        <mxCell id="BthGRRnm2dixX5qSgWoB-24" value="" style="group" parent="1" vertex="1" connectable="0">
          <mxGeometry x="140" y="200" width="60" height="120" as="geometry" />
        </mxCell>
        <mxCell id="BthGRRnm2dixX5qSgWoB-14" value="" style="shape=trapezoid;perimeter=trapezoidPerimeter;whiteSpace=wrap;html=1;fixedSize=1;rotation=90;points=[[0,0,0,0,0],[0,0.25,0,0,0],[0,0.5,0,0,0],[0,0.75,0,0,0],[0,1,0,0,0],[0.2,1,0,0,0],[0.25,0,0,0,0],[0.4,1,0,0,0],[0.5,0,0,0,0],[0.6,1,0,0,0],[0.75,0,0,0,0],[0.8,1,0,0,0],[1,0,0,0,0],[1,0.25,0,0,0],[1,0.5,0,0,0],[1,0.75,0,0,0],[1,1,0,0,0]];" parent="BthGRRnm2dixX5qSgWoB-24" vertex="1">
          <mxGeometry x="-30" y="30" width="120" height="60" as="geometry" />
        </mxCell>
        <mxCell id="BthGRRnm2dixX5qSgWoB-15" value="u_pc_sel" style="text;html=1;align=center;verticalAlign=middle;whiteSpace=wrap;rounded=0;" parent="BthGRRnm2dixX5qSgWoB-24" vertex="1">
          <mxGeometry y="45" width="60" height="30" as="geometry" />
        </mxCell>
        <mxCell id="BthGRRnm2dixX5qSgWoB-30" value="Inst Fetch" style="text;strokeColor=none;fillColor=none;html=1;fontSize=30;fontStyle=1;verticalAlign=middle;align=center;" parent="1" vertex="1">
          <mxGeometry x="305" y="910" width="275" height="110" as="geometry" />
        </mxCell>
        <mxCell id="BthGRRnm2dixX5qSgWoB-31" value="BIOS" style="rounded=0;whiteSpace=wrap;html=1;" parent="1" vertex="1">
          <mxGeometry x="360" y="280" width="90" height="90" as="geometry" />
        </mxCell>
        <mxCell id="BthGRRnm2dixX5qSgWoB-32" value="IMEM" style="rounded=0;whiteSpace=wrap;html=1;" parent="1" vertex="1">
          <mxGeometry x="361.5" y="400" width="90" height="90" as="geometry" />
        </mxCell>
        <mxCell id="BthGRRnm2dixX5qSgWoB-35" style="edgeStyle=orthogonalEdgeStyle;rounded=0;orthogonalLoop=1;jettySize=auto;html=1;exitX=1;exitY=0.5;exitDx=0;exitDy=0;entryX=0;entryY=0.25;entryDx=0;entryDy=0;" parent="1" source="BthGRRnm2dixX5qSgWoB-15" target="BthGRRnm2dixX5qSgWoB-31" edge="1">
          <mxGeometry relative="1" as="geometry" />
        </mxCell>
        <mxCell id="BthGRRnm2dixX5qSgWoB-36" style="edgeStyle=orthogonalEdgeStyle;rounded=0;orthogonalLoop=1;jettySize=auto;html=1;exitX=1;exitY=0.5;exitDx=0;exitDy=0;entryX=0;entryY=0.25;entryDx=0;entryDy=0;" parent="1" source="BthGRRnm2dixX5qSgWoB-15" target="BthGRRnm2dixX5qSgWoB-32" edge="1">
          <mxGeometry relative="1" as="geometry" />
        </mxCell>
        <mxCell id="BthGRRnm2dixX5qSgWoB-41" style="edgeStyle=orthogonalEdgeStyle;rounded=0;orthogonalLoop=1;jettySize=auto;html=1;exitX=1;exitY=0.5;exitDx=0;exitDy=0;entryX=0;entryY=0.5;entryDx=0;entryDy=0;" parent="1" source="BthGRRnm2dixX5qSgWoB-15" target="BthGRRnm2dixX5qSgWoB-8" edge="1">
          <mxGeometry relative="1" as="geometry" />
        </mxCell>
        <mxCell id="BthGRRnm2dixX5qSgWoB-57" value="pc_in" style="edgeLabel;html=1;align=center;verticalAlign=middle;resizable=0;points=[];" parent="BthGRRnm2dixX5qSgWoB-41" vertex="1" connectable="0">
          <mxGeometry x="-0.7396" relative="1" as="geometry">
            <mxPoint as="offset" />
          </mxGeometry>
        </mxCell>
        <mxCell id="BthGRRnm2dixX5qSgWoB-46" value="" style="group" parent="1" vertex="1" connectable="0">
          <mxGeometry x="580" y="320" width="60" height="120" as="geometry" />
        </mxCell>
        <mxCell id="BthGRRnm2dixX5qSgWoB-43" value="" style="shape=trapezoid;perimeter=trapezoidPerimeter;whiteSpace=wrap;html=1;fixedSize=1;rotation=90;points=[[0,0,0,0,0],[0,0.25,0,0,0],[0,0.5,0,0,0],[0,0.75,0,0,0],[0,1,0,0,0],[0.25,0,0,0,0],[0.25,1,0,0,0],[0.5,0,0,0,0],[0.75,0,0,0,0],[0.75,1,0,0,0],[1,0,0,0,0],[1,0.25,0,0,0],[1,0.5,0,0,0],[1,0.75,0,0,0],[1,1,0,0,0]];" parent="BthGRRnm2dixX5qSgWoB-46" vertex="1">
          <mxGeometry x="-30" y="30" width="120" height="60" as="geometry" />
        </mxCell>
        <mxCell id="BthGRRnm2dixX5qSgWoB-45" value="inst_sel" style="text;html=1;align=center;verticalAlign=middle;whiteSpace=wrap;rounded=0;" parent="BthGRRnm2dixX5qSgWoB-46" vertex="1">
          <mxGeometry y="45" width="60" height="30" as="geometry" />
        </mxCell>
        <mxCell id="BthGRRnm2dixX5qSgWoB-47" style="edgeStyle=orthogonalEdgeStyle;rounded=0;orthogonalLoop=1;jettySize=auto;html=1;exitX=1;exitY=0.5;exitDx=0;exitDy=0;entryX=0.25;entryY=1;entryDx=0;entryDy=0;entryPerimeter=0;" parent="1" source="BthGRRnm2dixX5qSgWoB-31" target="BthGRRnm2dixX5qSgWoB-43" edge="1">
          <mxGeometry relative="1" as="geometry" />
        </mxCell>
        <mxCell id="BthGRRnm2dixX5qSgWoB-48" style="edgeStyle=orthogonalEdgeStyle;rounded=0;orthogonalLoop=1;jettySize=auto;html=1;entryX=0.75;entryY=1;entryDx=0;entryDy=0;entryPerimeter=0;" parent="1" source="BthGRRnm2dixX5qSgWoB-32" target="BthGRRnm2dixX5qSgWoB-43" edge="1">
          <mxGeometry relative="1" as="geometry" />
        </mxCell>
        <mxCell id="BthGRRnm2dixX5qSgWoB-52" value="&lt;font style=&quot;font-size: 10px;&quot;&gt;imem_doutb&lt;/font&gt;" style="text;html=1;align=center;verticalAlign=middle;whiteSpace=wrap;rounded=0;" parent="1" vertex="1">
          <mxGeometry x="451.5" y="420" width="60" height="30" as="geometry" />
        </mxCell>
        <mxCell id="BthGRRnm2dixX5qSgWoB-53" value="&lt;font style=&quot;font-size: 10px;&quot;&gt;bios_douta&lt;/font&gt;" style="text;html=1;align=center;verticalAlign=middle;whiteSpace=wrap;rounded=0;" parent="1" vertex="1">
          <mxGeometry x="451.5" y="330" width="60" height="30" as="geometry" />
        </mxCell>
        <mxCell id="BthGRRnm2dixX5qSgWoB-55" value="&lt;font style=&quot;font-size: 10px;&quot;&gt;bios_addra&lt;/font&gt;" style="text;html=1;align=center;verticalAlign=middle;whiteSpace=wrap;rounded=0;" parent="1" vertex="1">
          <mxGeometry x="292.5" y="270" width="60" height="30" as="geometry" />
        </mxCell>
        <mxCell id="BthGRRnm2dixX5qSgWoB-56" value="&lt;font style=&quot;font-size: 10px;&quot;&gt;imem_addrb&lt;/font&gt;" style="text;html=1;align=center;verticalAlign=middle;whiteSpace=wrap;rounded=0;" parent="1" vertex="1">
          <mxGeometry x="292.5" y="390" width="60" height="30" as="geometry" />
        </mxCell>
        <mxCell id="BthGRRnm2dixX5qSgWoB-59" value="" style="group" parent="1" vertex="1" connectable="0">
          <mxGeometry x="361.5" y="520" width="50" height="100" as="geometry" />
        </mxCell>
        <mxCell id="BthGRRnm2dixX5qSgWoB-62" value="u_flush" style="rounded=0;whiteSpace=wrap;html=1;" parent="BthGRRnm2dixX5qSgWoB-59" vertex="1">
          <mxGeometry width="50" height="100" as="geometry" />
        </mxCell>
        <mxCell id="BthGRRnm2dixX5qSgWoB-63" value="" style="triangle;whiteSpace=wrap;html=1;rotation=90;aspect=fixed;" parent="BthGRRnm2dixX5qSgWoB-59" vertex="1">
          <mxGeometry x="10" y="-10" width="30" height="50" as="geometry" />
        </mxCell>
        <mxCell id="BthGRRnm2dixX5qSgWoB-64" value="" style="group" parent="1" vertex="1" connectable="0">
          <mxGeometry x="730" y="370" width="60" height="120" as="geometry" />
        </mxCell>
        <mxCell id="BthGRRnm2dixX5qSgWoB-65" value="" style="shape=trapezoid;perimeter=trapezoidPerimeter;whiteSpace=wrap;html=1;fixedSize=1;rotation=90;points=[[0,0,0,0,0],[0,0.25,0,0,0],[0,0.5,0,0,0],[0,0.75,0,0,0],[0,1,0,0,0],[0.25,0,0,0,0],[0.25,1,0,0,0],[0.5,0,0,0,0],[0.75,0,0,0,0],[0.75,1,0,0,0],[1,0,0,0,0],[1,0.25,0,0,0],[1,0.5,0,0,0],[1,0.75,0,0,0],[1,1,0,0,0]];" parent="BthGRRnm2dixX5qSgWoB-64" vertex="1">
          <mxGeometry x="-30" y="30" width="120" height="60" as="geometry" />
        </mxCell>
        <mxCell id="BthGRRnm2dixX5qSgWoB-68" value="+4" style="whiteSpace=wrap;html=1;" parent="1" vertex="1">
          <mxGeometry x="334" y="30" width="80" height="80" as="geometry" />
        </mxCell>
        <mxCell id="BthGRRnm2dixX5qSgWoB-69" style="edgeStyle=orthogonalEdgeStyle;rounded=0;orthogonalLoop=1;jettySize=auto;html=1;exitX=1;exitY=0.5;exitDx=0;exitDy=0;entryX=1;entryY=0.5;entryDx=0;entryDy=0;" parent="1" source="BthGRRnm2dixX5qSgWoB-8" target="BthGRRnm2dixX5qSgWoB-68" edge="1">
          <mxGeometry relative="1" as="geometry">
            <Array as="points">
              <mxPoint x="720" y="180" />
              <mxPoint x="720" y="70" />
            </Array>
          </mxGeometry>
        </mxCell>
        <mxCell id="BthGRRnm2dixX5qSgWoB-71" value="pc_if" style="edgeLabel;html=1;align=center;verticalAlign=middle;resizable=0;points=[];" parent="BthGRRnm2dixX5qSgWoB-69" vertex="1" connectable="0">
          <mxGeometry x="-0.7089" y="1" relative="1" as="geometry">
            <mxPoint x="33" y="-9" as="offset" />
          </mxGeometry>
        </mxCell>
        <mxCell id="BthGRRnm2dixX5qSgWoB-72" style="edgeStyle=orthogonalEdgeStyle;rounded=0;orthogonalLoop=1;jettySize=auto;html=1;entryX=0.2;entryY=1;entryDx=0;entryDy=0;entryPerimeter=0;" parent="1" source="BthGRRnm2dixX5qSgWoB-68" target="BthGRRnm2dixX5qSgWoB-14" edge="1">
          <mxGeometry relative="1" as="geometry">
            <Array as="points">
              <mxPoint x="100" y="70" />
              <mxPoint x="100" y="224" />
            </Array>
          </mxGeometry>
        </mxCell>
        <mxCell id="BthGRRnm2dixX5qSgWoB-73" value="pc_plus_4" style="edgeLabel;html=1;align=center;verticalAlign=middle;resizable=0;points=[];" parent="BthGRRnm2dixX5qSgWoB-72" vertex="1" connectable="0">
          <mxGeometry x="-0.3995" y="2" relative="1" as="geometry">
            <mxPoint x="13" y="-2" as="offset" />
          </mxGeometry>
        </mxCell>
        <mxCell id="BthGRRnm2dixX5qSgWoB-60" style="edgeStyle=orthogonalEdgeStyle;rounded=0;orthogonalLoop=1;jettySize=auto;html=1;entryX=0.907;entryY=0.472;entryDx=0;entryDy=0;entryPerimeter=0;" parent="1" source="BthGRRnm2dixX5qSgWoB-62" target="BthGRRnm2dixX5qSgWoB-65" edge="1">
          <mxGeometry relative="1" as="geometry">
            <mxPoint x="541.5" y="570" as="targetPoint" />
          </mxGeometry>
        </mxCell>
        <mxCell id="BthGRRnm2dixX5qSgWoB-61" value="fulsh" style="edgeLabel;html=1;align=center;verticalAlign=middle;resizable=0;points=[];" parent="BthGRRnm2dixX5qSgWoB-60" vertex="1" connectable="0">
          <mxGeometry x="-0.241" y="2" relative="1" as="geometry">
            <mxPoint y="2" as="offset" />
          </mxGeometry>
        </mxCell>
        <mxCell id="BthGRRnm2dixX5qSgWoB-75" style="edgeStyle=orthogonalEdgeStyle;rounded=0;orthogonalLoop=1;jettySize=auto;html=1;exitX=1;exitY=0.5;exitDx=0;exitDy=0;entryX=0.25;entryY=1;entryDx=0;entryDy=0;entryPerimeter=0;" parent="1" source="BthGRRnm2dixX5qSgWoB-45" target="BthGRRnm2dixX5qSgWoB-65" edge="1">
          <mxGeometry relative="1" as="geometry" />
        </mxCell>
        <mxCell id="BthGRRnm2dixX5qSgWoB-76" value="INST_NOP" style="text;html=1;align=center;verticalAlign=middle;resizable=0;points=[];autosize=1;strokeColor=none;fillColor=none;" parent="1" vertex="1">
          <mxGeometry x="560" y="460" width="80" height="30" as="geometry" />
        </mxCell>
        <mxCell id="BthGRRnm2dixX5qSgWoB-77" style="edgeStyle=orthogonalEdgeStyle;rounded=0;orthogonalLoop=1;jettySize=auto;html=1;entryX=0.75;entryY=1;entryDx=0;entryDy=0;entryPerimeter=0;" parent="1" source="BthGRRnm2dixX5qSgWoB-76" target="BthGRRnm2dixX5qSgWoB-65" edge="1">
          <mxGeometry relative="1" as="geometry" />
        </mxCell>
        <mxCell id="BthGRRnm2dixX5qSgWoB-92" style="edgeStyle=orthogonalEdgeStyle;rounded=0;orthogonalLoop=1;jettySize=auto;html=1;exitX=1;exitY=0.25;exitDx=0;exitDy=0;entryX=0.75;entryY=1;entryDx=0;entryDy=0;entryPerimeter=0;" parent="1" source="BthGRRnm2dixX5qSgWoB-80" target="BthGRRnm2dixX5qSgWoB-101" edge="1">
          <mxGeometry relative="1" as="geometry">
            <mxPoint x="1160" y="392.16666666666697" as="targetPoint" />
          </mxGeometry>
        </mxCell>
        <mxCell id="BthGRRnm2dixX5qSgWoB-93" style="edgeStyle=orthogonalEdgeStyle;rounded=0;orthogonalLoop=1;jettySize=auto;html=1;exitX=1;exitY=0.5;exitDx=0;exitDy=0;entryX=0.25;entryY=1;entryDx=0;entryDy=0;entryPerimeter=0;" parent="1" source="BthGRRnm2dixX5qSgWoB-80" target="BthGRRnm2dixX5qSgWoB-103" edge="1">
          <mxGeometry relative="1" as="geometry">
            <mxPoint x="1160" y="429.66666666666697" as="targetPoint" />
          </mxGeometry>
        </mxCell>
        <mxCell id="BthGRRnm2dixX5qSgWoB-80" value="Reg File" style="rounded=0;whiteSpace=wrap;html=1;" parent="1" vertex="1">
          <mxGeometry x="1000" y="355" width="90" height="150" as="geometry" />
        </mxCell>
        <mxCell id="BthGRRnm2dixX5qSgWoB-81" value="" style="group" parent="1" vertex="1" connectable="0">
          <mxGeometry x="2121.5" y="780" width="50" height="100" as="geometry" />
        </mxCell>
        <mxCell id="BthGRRnm2dixX5qSgWoB-82" value="rd_ex" style="rounded=0;whiteSpace=wrap;html=1;" parent="BthGRRnm2dixX5qSgWoB-81" vertex="1">
          <mxGeometry width="50" height="100" as="geometry" />
        </mxCell>
        <mxCell id="BthGRRnm2dixX5qSgWoB-83" value="" style="triangle;whiteSpace=wrap;html=1;rotation=90;aspect=fixed;" parent="BthGRRnm2dixX5qSgWoB-81" vertex="1">
          <mxGeometry x="10" y="-10" width="30" height="50" as="geometry" />
        </mxCell>
        <mxCell id="BthGRRnm2dixX5qSgWoB-85" style="edgeStyle=orthogonalEdgeStyle;rounded=0;orthogonalLoop=1;jettySize=auto;html=1;entryX=0;entryY=0.25;entryDx=0;entryDy=0;" parent="1" source="BthGRRnm2dixX5qSgWoB-65" target="BthGRRnm2dixX5qSgWoB-80" edge="1">
          <mxGeometry relative="1" as="geometry" />
        </mxCell>
        <mxCell id="BthGRRnm2dixX5qSgWoB-86" style="edgeStyle=orthogonalEdgeStyle;rounded=0;orthogonalLoop=1;jettySize=auto;html=1;entryX=0;entryY=0.5;entryDx=0;entryDy=0;" parent="1" source="BthGRRnm2dixX5qSgWoB-65" target="BthGRRnm2dixX5qSgWoB-80" edge="1">
          <mxGeometry relative="1" as="geometry" />
        </mxCell>
        <mxCell id="BthGRRnm2dixX5qSgWoB-87" value="inst_if" style="edgeLabel;html=1;align=center;verticalAlign=middle;resizable=0;points=[];" parent="BthGRRnm2dixX5qSgWoB-86" vertex="1" connectable="0">
          <mxGeometry x="-0.5908" relative="1" as="geometry">
            <mxPoint y="-10" as="offset" />
          </mxGeometry>
        </mxCell>
        <mxCell id="BthGRRnm2dixX5qSgWoB-88" value="ra1" style="text;html=1;align=center;verticalAlign=middle;resizable=0;points=[];autosize=1;strokeColor=none;fillColor=none;" parent="1" vertex="1">
          <mxGeometry x="920" y="365" width="40" height="30" as="geometry" />
        </mxCell>
        <mxCell id="BthGRRnm2dixX5qSgWoB-89" value="ra2" style="text;html=1;align=center;verticalAlign=middle;resizable=0;points=[];autosize=1;strokeColor=none;fillColor=none;" parent="1" vertex="1">
          <mxGeometry x="920" y="400" width="40" height="30" as="geometry" />
        </mxCell>
        <mxCell id="BthGRRnm2dixX5qSgWoB-94" value="immGen" style="rounded=0;whiteSpace=wrap;html=1;" parent="1" vertex="1">
          <mxGeometry x="1000" y="590" width="90" height="90" as="geometry" />
        </mxCell>
        <mxCell id="BthGRRnm2dixX5qSgWoB-97" value="imm" style="text;html=1;align=center;verticalAlign=middle;resizable=0;points=[];autosize=1;strokeColor=none;fillColor=none;" parent="1" vertex="1">
          <mxGeometry x="1100" y="610" width="50" height="30" as="geometry" />
        </mxCell>
        <mxCell id="BthGRRnm2dixX5qSgWoB-98" value="rd1" style="text;html=1;align=center;verticalAlign=middle;resizable=0;points=[];autosize=1;strokeColor=none;fillColor=none;" parent="1" vertex="1">
          <mxGeometry x="1100" y="368" width="40" height="30" as="geometry" />
        </mxCell>
        <mxCell id="BthGRRnm2dixX5qSgWoB-99" value="rd2" style="text;html=1;align=center;verticalAlign=middle;resizable=0;points=[];autosize=1;strokeColor=none;fillColor=none;" parent="1" vertex="1">
          <mxGeometry x="1100" y="408" width="40" height="30" as="geometry" />
        </mxCell>
        <mxCell id="BthGRRnm2dixX5qSgWoB-100" value="" style="group" parent="1" vertex="1" connectable="0">
          <mxGeometry x="1230" y="270" width="60" height="120" as="geometry" />
        </mxCell>
        <mxCell id="BthGRRnm2dixX5qSgWoB-101" value="" style="shape=trapezoid;perimeter=trapezoidPerimeter;whiteSpace=wrap;html=1;fixedSize=1;rotation=90;points=[[0,0,0,0,0],[0,0.25,0,0,0],[0,0.5,0,0,0],[0,0.75,0,0,0],[0,1,0,0,0],[0.25,0,0,0,0],[0.25,1,0,0,0],[0.5,0,0,0,0],[0.75,0,0,0,0],[0.75,1,0,0,0],[1,0,0,0,0],[1,0.25,0,0,0],[1,0.5,0,0,0],[1,0.75,0,0,0],[1,1,0,0,0]];" parent="BthGRRnm2dixX5qSgWoB-100" vertex="1">
          <mxGeometry x="-30" y="30" width="120" height="60" as="geometry" />
        </mxCell>
        <mxCell id="BthGRRnm2dixX5qSgWoB-104" value="fwd1" style="text;html=1;align=center;verticalAlign=middle;whiteSpace=wrap;rounded=0;" parent="BthGRRnm2dixX5qSgWoB-100" vertex="1">
          <mxGeometry y="45" width="60" height="30" as="geometry" />
        </mxCell>
        <mxCell id="BthGRRnm2dixX5qSgWoB-102" value="" style="group" parent="1" vertex="1" connectable="0">
          <mxGeometry x="1230" y="450" width="60" height="120" as="geometry" />
        </mxCell>
        <mxCell id="BthGRRnm2dixX5qSgWoB-103" value="" style="shape=trapezoid;perimeter=trapezoidPerimeter;whiteSpace=wrap;html=1;fixedSize=1;rotation=90;points=[[0,0,0,0,0],[0,0.25,0,0,0],[0,0.5,0,0,0],[0,0.75,0,0,0],[0,1,0,0,0],[0.25,0,0,0,0],[0.25,1,0,0,0],[0.5,0,0,0,0],[0.75,0,0,0,0],[0.75,1,0,0,0],[1,0,0,0,0],[1,0.25,0,0,0],[1,0.5,0,0,0],[1,0.75,0,0,0],[1,1,0,0,0]];" parent="BthGRRnm2dixX5qSgWoB-102" vertex="1">
          <mxGeometry x="-30" y="30" width="120" height="60" as="geometry" />
        </mxCell>
        <mxCell id="BthGRRnm2dixX5qSgWoB-105" value="fwd2" style="text;html=1;align=center;verticalAlign=middle;whiteSpace=wrap;rounded=0;" parent="BthGRRnm2dixX5qSgWoB-102" vertex="1">
          <mxGeometry y="45" width="60" height="30" as="geometry" />
        </mxCell>
        <mxCell id="BthGRRnm2dixX5qSgWoB-108" value="RS1" style="text;html=1;align=center;verticalAlign=middle;resizable=0;points=[];autosize=1;strokeColor=none;fillColor=none;" parent="1" vertex="1">
          <mxGeometry x="1310" y="300" width="50" height="30" as="geometry" />
        </mxCell>
        <mxCell id="BthGRRnm2dixX5qSgWoB-110" value="RS2" style="text;html=1;align=center;verticalAlign=middle;resizable=0;points=[];autosize=1;strokeColor=none;fillColor=none;" parent="1" vertex="1">
          <mxGeometry x="1310" y="480" width="50" height="30" as="geometry" />
        </mxCell>
        <mxCell id="BthGRRnm2dixX5qSgWoB-111" value="Inst Decode &amp;amp; EX" style="text;strokeColor=none;fillColor=none;html=1;fontSize=30;fontStyle=1;verticalAlign=middle;align=center;" parent="1" vertex="1">
          <mxGeometry x="1400" y="910" width="275" height="110" as="geometry" />
        </mxCell>
        <mxCell id="BthGRRnm2dixX5qSgWoB-113" value="" style="group" parent="1" vertex="1" connectable="0">
          <mxGeometry x="1400" y="240" width="60" height="120" as="geometry" />
        </mxCell>
        <mxCell id="BthGRRnm2dixX5qSgWoB-114" value="" style="shape=trapezoid;perimeter=trapezoidPerimeter;whiteSpace=wrap;html=1;fixedSize=1;rotation=90;points=[[0,0,0,0,0],[0,0.25,0,0,0],[0,0.5,0,0,0],[0,0.75,0,0,0],[0,1,0,0,0],[0.25,0,0,0,0],[0.25,1,0,0,0],[0.5,0,0,0,0],[0.75,0,0,0,0],[0.75,1,0,0,0],[1,0,0,0,0],[1,0.25,0,0,0],[1,0.5,0,0,0],[1,0.75,0,0,0],[1,1,0,0,0]];" parent="BthGRRnm2dixX5qSgWoB-113" vertex="1">
          <mxGeometry x="-30" y="30" width="120" height="60" as="geometry" />
        </mxCell>
        <mxCell id="BthGRRnm2dixX5qSgWoB-116" value="a_sel" style="text;html=1;align=center;verticalAlign=middle;whiteSpace=wrap;rounded=0;" parent="BthGRRnm2dixX5qSgWoB-113" vertex="1">
          <mxGeometry y="45" width="60" height="30" as="geometry" />
        </mxCell>
        <mxCell id="BthGRRnm2dixX5qSgWoB-117" value="" style="group" parent="1" vertex="1" connectable="0">
          <mxGeometry x="1400" y="480" width="60" height="120" as="geometry" />
        </mxCell>
        <mxCell id="BthGRRnm2dixX5qSgWoB-118" value="" style="shape=trapezoid;perimeter=trapezoidPerimeter;whiteSpace=wrap;html=1;fixedSize=1;rotation=90;points=[[0,0,0,0,0],[0,0.25,0,0,0],[0,0.5,0,0,0],[0,0.75,0,0,0],[0,1,0,0,0],[0.25,0,0,0,0],[0.25,1,0,0,0],[0.5,0,0,0,0],[0.75,0,0,0,0],[0.75,1,0,0,0],[1,0,0,0,0],[1,0.25,0,0,0],[1,0.5,0,0,0],[1,0.75,0,0,0],[1,1,0,0,0]];" parent="BthGRRnm2dixX5qSgWoB-117" vertex="1">
          <mxGeometry x="-30" y="30" width="120" height="60" as="geometry" />
        </mxCell>
        <mxCell id="BthGRRnm2dixX5qSgWoB-120" value="b_sel" style="text;html=1;align=center;verticalAlign=middle;whiteSpace=wrap;rounded=0;" parent="BthGRRnm2dixX5qSgWoB-117" vertex="1">
          <mxGeometry y="45" width="60" height="30" as="geometry" />
        </mxCell>
        <mxCell id="BthGRRnm2dixX5qSgWoB-107" style="edgeStyle=orthogonalEdgeStyle;rounded=0;orthogonalLoop=1;jettySize=auto;html=1;exitX=1;exitY=0.5;exitDx=0;exitDy=0;entryX=0.75;entryY=1;entryDx=0;entryDy=0;entryPerimeter=0;" parent="1" source="BthGRRnm2dixX5qSgWoB-104" target="BthGRRnm2dixX5qSgWoB-114" edge="1">
          <mxGeometry relative="1" as="geometry">
            <mxPoint x="1390" y="329.66666666666697" as="targetPoint" />
          </mxGeometry>
        </mxCell>
        <mxCell id="BthGRRnm2dixX5qSgWoB-28" style="edgeStyle=orthogonalEdgeStyle;rounded=0;orthogonalLoop=1;jettySize=auto;html=1;entryX=0.25;entryY=1;entryDx=0;entryDy=0;entryPerimeter=0;" parent="1" source="BthGRRnm2dixX5qSgWoB-8" target="BthGRRnm2dixX5qSgWoB-114" edge="1">
          <mxGeometry relative="1" as="geometry">
            <mxPoint x="880" y="180" as="targetPoint" />
            <Array as="points">
              <mxPoint x="1360" y="180" />
              <mxPoint x="1360" y="270" />
            </Array>
          </mxGeometry>
        </mxCell>
        <mxCell id="BthGRRnm2dixX5qSgWoB-109" style="edgeStyle=orthogonalEdgeStyle;rounded=0;orthogonalLoop=1;jettySize=auto;html=1;entryX=0.25;entryY=1;entryDx=0;entryDy=0;entryPerimeter=0;" parent="1" source="BthGRRnm2dixX5qSgWoB-105" target="BthGRRnm2dixX5qSgWoB-118" edge="1">
          <mxGeometry relative="1" as="geometry">
            <mxPoint x="1390" y="510" as="targetPoint" />
          </mxGeometry>
        </mxCell>
        <mxCell id="BthGRRnm2dixX5qSgWoB-135" style="edgeStyle=orthogonalEdgeStyle;rounded=0;orthogonalLoop=1;jettySize=auto;html=1;entryX=0;entryY=0.25;entryDx=0;entryDy=0;" parent="1" source="BthGRRnm2dixX5qSgWoB-121" target="BthGRRnm2dixX5qSgWoB-171" edge="1">
          <mxGeometry relative="1" as="geometry">
            <mxPoint x="1880" y="420" as="targetPoint" />
            <Array as="points">
              <mxPoint x="2050" y="420" />
              <mxPoint x="2050" y="578" />
            </Array>
          </mxGeometry>
        </mxCell>
        <mxCell id="BthGRRnm2dixX5qSgWoB-137" style="edgeStyle=orthogonalEdgeStyle;rounded=0;orthogonalLoop=1;jettySize=auto;html=1;exitX=1;exitY=0.75;exitDx=0;exitDy=0;entryX=0.5;entryY=0;entryDx=0;entryDy=0;" parent="1" source="BthGRRnm2dixX5qSgWoB-121" target="BthGRRnm2dixX5qSgWoB-150" edge="1">
          <mxGeometry relative="1" as="geometry">
            <mxPoint x="1880" y="444.66666666666697" as="targetPoint" />
          </mxGeometry>
        </mxCell>
        <mxCell id="BthGRRnm2dixX5qSgWoB-164" style="edgeStyle=orthogonalEdgeStyle;rounded=0;orthogonalLoop=1;jettySize=auto;html=1;exitX=1;exitY=0.5;exitDx=0;exitDy=0;entryX=0;entryY=0;entryDx=0;entryDy=0;" parent="1" source="BthGRRnm2dixX5qSgWoB-121" target="BthGRRnm2dixX5qSgWoB-15" edge="1">
          <mxGeometry relative="1" as="geometry">
            <mxPoint x="0.8333333333333321" y="470" as="targetPoint" />
            <Array as="points">
              <mxPoint x="1790" y="420" />
              <mxPoint x="1790" y="-110" />
              <mxPoint x="50" y="-110" />
              <mxPoint x="50" y="245" />
            </Array>
          </mxGeometry>
        </mxCell>
        <mxCell id="BthGRRnm2dixX5qSgWoB-165" value="alu_out" style="edgeLabel;html=1;align=center;verticalAlign=middle;resizable=0;points=[];" parent="BthGRRnm2dixX5qSgWoB-164" vertex="1" connectable="0">
          <mxGeometry x="0.9601" y="1" relative="1" as="geometry">
            <mxPoint x="6" y="1" as="offset" />
          </mxGeometry>
        </mxCell>
        <mxCell id="BthGRRnm2dixX5qSgWoB-202" style="edgeStyle=orthogonalEdgeStyle;rounded=0;orthogonalLoop=1;jettySize=auto;html=1;exitX=1;exitY=0.5;exitDx=0;exitDy=0;entryX=0;entryY=0.25;entryDx=0;entryDy=0;" parent="1" source="BthGRRnm2dixX5qSgWoB-121" target="BthGRRnm2dixX5qSgWoB-170" edge="1">
          <mxGeometry relative="1" as="geometry">
            <Array as="points">
              <mxPoint x="2050" y="420" />
              <mxPoint x="2050" y="453" />
            </Array>
          </mxGeometry>
        </mxCell>
        <mxCell id="BthGRRnm2dixX5qSgWoB-223" style="edgeStyle=orthogonalEdgeStyle;rounded=0;orthogonalLoop=1;jettySize=auto;html=1;exitX=1;exitY=0.5;exitDx=0;exitDy=0;entryX=0;entryY=0.5;entryDx=0;entryDy=0;" parent="1" source="BthGRRnm2dixX5qSgWoB-121" target="BthGRRnm2dixX5qSgWoB-169" edge="1">
          <mxGeometry relative="1" as="geometry">
            <Array as="points">
              <mxPoint x="2050" y="420" />
              <mxPoint x="2050" y="375" />
            </Array>
          </mxGeometry>
        </mxCell>
        <mxCell id="BthGRRnm2dixX5qSgWoB-224" style="edgeStyle=orthogonalEdgeStyle;rounded=0;orthogonalLoop=1;jettySize=auto;html=1;exitX=1;exitY=0.5;exitDx=0;exitDy=0;entryX=0;entryY=0.5;entryDx=0;entryDy=0;" parent="1" source="BthGRRnm2dixX5qSgWoB-121" target="BthGRRnm2dixX5qSgWoB-220" edge="1">
          <mxGeometry relative="1" as="geometry" />
        </mxCell>
        <mxCell id="BthGRRnm2dixX5qSgWoB-121" value="alu" style="rounded=0;whiteSpace=wrap;html=1;" parent="1" vertex="1">
          <mxGeometry x="1600" y="370" width="100" height="100" as="geometry" />
        </mxCell>
        <mxCell id="BthGRRnm2dixX5qSgWoB-115" style="edgeStyle=orthogonalEdgeStyle;rounded=0;orthogonalLoop=1;jettySize=auto;html=1;exitX=1;exitY=0.5;exitDx=0;exitDy=0;entryX=0;entryY=0.25;entryDx=0;entryDy=0;" parent="1" source="BthGRRnm2dixX5qSgWoB-116" target="BthGRRnm2dixX5qSgWoB-121" edge="1">
          <mxGeometry relative="1" as="geometry">
            <mxPoint x="1560" y="299.66666666666697" as="targetPoint" />
          </mxGeometry>
        </mxCell>
        <mxCell id="BthGRRnm2dixX5qSgWoB-119" style="edgeStyle=orthogonalEdgeStyle;rounded=0;orthogonalLoop=1;jettySize=auto;html=1;exitX=1;exitY=0.5;exitDx=0;exitDy=0;entryX=0;entryY=0.75;entryDx=0;entryDy=0;" parent="1" source="BthGRRnm2dixX5qSgWoB-120" target="BthGRRnm2dixX5qSgWoB-121" edge="1">
          <mxGeometry relative="1" as="geometry">
            <mxPoint x="1560" y="539.666666666667" as="targetPoint" />
          </mxGeometry>
        </mxCell>
        <mxCell id="BthGRRnm2dixX5qSgWoB-123" style="edgeStyle=orthogonalEdgeStyle;rounded=0;orthogonalLoop=1;jettySize=auto;html=1;entryX=0;entryY=0.5;entryDx=0;entryDy=0;" parent="1" source="BthGRRnm2dixX5qSgWoB-122" target="BthGRRnm2dixX5qSgWoB-121" edge="1">
          <mxGeometry relative="1" as="geometry" />
        </mxCell>
        <mxCell id="BthGRRnm2dixX5qSgWoB-122" value="is_lui" style="text;html=1;align=center;verticalAlign=middle;resizable=0;points=[];autosize=1;strokeColor=none;fillColor=none;" parent="1" vertex="1">
          <mxGeometry x="1405" y="405" width="50" height="30" as="geometry" />
        </mxCell>
        <mxCell id="BthGRRnm2dixX5qSgWoB-125" style="edgeStyle=orthogonalEdgeStyle;rounded=0;orthogonalLoop=1;jettySize=auto;html=1;entryX=0.5;entryY=0;entryDx=0;entryDy=0;" parent="1" source="BthGRRnm2dixX5qSgWoB-124" target="BthGRRnm2dixX5qSgWoB-121" edge="1">
          <mxGeometry relative="1" as="geometry" />
        </mxCell>
        <mxCell id="BthGRRnm2dixX5qSgWoB-124" value="alu_op" style="text;html=1;align=center;verticalAlign=middle;resizable=0;points=[];autosize=1;strokeColor=none;fillColor=none;" parent="1" vertex="1">
          <mxGeometry x="1620" y="300" width="60" height="30" as="geometry" />
        </mxCell>
        <mxCell id="BthGRRnm2dixX5qSgWoB-127" style="edgeStyle=orthogonalEdgeStyle;rounded=0;orthogonalLoop=1;jettySize=auto;html=1;" parent="1" source="BthGRRnm2dixX5qSgWoB-126" target="BthGRRnm2dixX5qSgWoB-101" edge="1">
          <mxGeometry relative="1" as="geometry" />
        </mxCell>
        <mxCell id="BthGRRnm2dixX5qSgWoB-126" value="fwd1_sel" style="text;html=1;align=center;verticalAlign=middle;resizable=0;points=[];autosize=1;strokeColor=none;fillColor=none;" parent="1" vertex="1">
          <mxGeometry x="1225" y="218" width="70" height="30" as="geometry" />
        </mxCell>
        <mxCell id="BthGRRnm2dixX5qSgWoB-128" value="fwd2_sel" style="text;html=1;align=center;verticalAlign=middle;resizable=0;points=[];autosize=1;strokeColor=none;fillColor=none;" parent="1" vertex="1">
          <mxGeometry x="1230" y="590" width="70" height="30" as="geometry" />
        </mxCell>
        <mxCell id="BthGRRnm2dixX5qSgWoB-131" style="edgeStyle=orthogonalEdgeStyle;rounded=0;orthogonalLoop=1;jettySize=auto;html=1;entryX=0.9;entryY=0.417;entryDx=0;entryDy=0;entryPerimeter=0;" parent="1" source="BthGRRnm2dixX5qSgWoB-128" target="BthGRRnm2dixX5qSgWoB-103" edge="1">
          <mxGeometry relative="1" as="geometry" />
        </mxCell>
        <mxCell id="BthGRRnm2dixX5qSgWoB-133" style="edgeStyle=orthogonalEdgeStyle;rounded=0;orthogonalLoop=1;jettySize=auto;html=1;exitX=0.5;exitY=0;exitDx=0;exitDy=0;exitPerimeter=0;entryX=0;entryY=0.5;entryDx=0;entryDy=0;" parent="1" source="BthGRRnm2dixX5qSgWoB-65" target="BthGRRnm2dixX5qSgWoB-94" edge="1">
          <mxGeometry relative="1" as="geometry" />
        </mxCell>
        <mxCell id="BthGRRnm2dixX5qSgWoB-134" style="edgeStyle=orthogonalEdgeStyle;rounded=0;orthogonalLoop=1;jettySize=auto;html=1;exitX=1;exitY=0.5;exitDx=0;exitDy=0;entryX=0.75;entryY=1;entryDx=0;entryDy=0;entryPerimeter=0;" parent="1" source="BthGRRnm2dixX5qSgWoB-94" target="BthGRRnm2dixX5qSgWoB-118" edge="1">
          <mxGeometry relative="1" as="geometry">
            <Array as="points">
              <mxPoint x="1360" y="635" />
              <mxPoint x="1360" y="570" />
            </Array>
          </mxGeometry>
        </mxCell>
        <mxCell id="BthGRRnm2dixX5qSgWoB-136" value="alu_out" style="text;html=1;align=center;verticalAlign=middle;resizable=0;points=[];autosize=1;strokeColor=none;fillColor=none;" parent="1" vertex="1">
          <mxGeometry x="1715" y="390" width="60" height="30" as="geometry" />
        </mxCell>
        <mxCell id="BthGRRnm2dixX5qSgWoB-138" value="alu_sum" style="text;html=1;align=center;verticalAlign=middle;resizable=0;points=[];autosize=1;strokeColor=none;fillColor=none;" parent="1" vertex="1">
          <mxGeometry x="1710" y="450" width="70" height="30" as="geometry" />
        </mxCell>
        <mxCell id="BthGRRnm2dixX5qSgWoB-144" style="edgeStyle=orthogonalEdgeStyle;rounded=0;orthogonalLoop=1;jettySize=auto;html=1;exitX=1;exitY=0.5;exitDx=0;exitDy=0;" parent="1" source="BthGRRnm2dixX5qSgWoB-139" edge="1">
          <mxGeometry relative="1" as="geometry">
            <mxPoint x="1780" y="10" as="targetPoint" />
          </mxGeometry>
        </mxCell>
        <mxCell id="BthGRRnm2dixX5qSgWoB-139" value="brCond" style="rounded=0;whiteSpace=wrap;html=1;" parent="1" vertex="1">
          <mxGeometry x="1600" y="-40" width="100" height="100" as="geometry" />
        </mxCell>
        <mxCell id="BthGRRnm2dixX5qSgWoB-140" style="edgeStyle=orthogonalEdgeStyle;rounded=0;orthogonalLoop=1;jettySize=auto;html=1;entryX=0;entryY=0.25;entryDx=0;entryDy=0;" parent="1" source="BthGRRnm2dixX5qSgWoB-104" target="BthGRRnm2dixX5qSgWoB-139" edge="1">
          <mxGeometry relative="1" as="geometry">
            <Array as="points">
              <mxPoint x="1350" y="330" />
              <mxPoint x="1350" y="-15" />
            </Array>
          </mxGeometry>
        </mxCell>
        <mxCell id="BthGRRnm2dixX5qSgWoB-141" style="edgeStyle=orthogonalEdgeStyle;rounded=0;orthogonalLoop=1;jettySize=auto;html=1;entryX=0;entryY=0.75;entryDx=0;entryDy=0;" parent="1" source="BthGRRnm2dixX5qSgWoB-105" target="BthGRRnm2dixX5qSgWoB-139" edge="1">
          <mxGeometry relative="1" as="geometry">
            <Array as="points">
              <mxPoint x="1320" y="510" />
              <mxPoint x="1320" y="35" />
            </Array>
          </mxGeometry>
        </mxCell>
        <mxCell id="BthGRRnm2dixX5qSgWoB-143" style="edgeStyle=orthogonalEdgeStyle;rounded=0;orthogonalLoop=1;jettySize=auto;html=1;entryX=0.5;entryY=0;entryDx=0;entryDy=0;" parent="1" source="BthGRRnm2dixX5qSgWoB-142" target="BthGRRnm2dixX5qSgWoB-139" edge="1">
          <mxGeometry relative="1" as="geometry" />
        </mxCell>
        <mxCell id="BthGRRnm2dixX5qSgWoB-142" value="br_type" style="text;html=1;align=center;verticalAlign=middle;resizable=0;points=[];autosize=1;strokeColor=none;fillColor=none;" parent="1" vertex="1">
          <mxGeometry x="1620" y="-100" width="60" height="30" as="geometry" />
        </mxCell>
        <mxCell id="BthGRRnm2dixX5qSgWoB-145" value="br_taken" style="text;html=1;align=center;verticalAlign=middle;resizable=0;points=[];autosize=1;strokeColor=none;fillColor=none;" parent="1" vertex="1">
          <mxGeometry x="1700" y="-30" width="70" height="30" as="geometry" />
        </mxCell>
        <mxCell id="BthGRRnm2dixX5qSgWoB-149" style="edgeStyle=orthogonalEdgeStyle;rounded=0;orthogonalLoop=1;jettySize=auto;html=1;entryX=0;entryY=0.5;entryDx=0;entryDy=0;" parent="1" source="BthGRRnm2dixX5qSgWoB-148" target="BthGRRnm2dixX5qSgWoB-62" edge="1">
          <mxGeometry relative="1" as="geometry" />
        </mxCell>
        <mxCell id="BthGRRnm2dixX5qSgWoB-148" value="jmp_flag" style="text;html=1;align=center;verticalAlign=middle;resizable=0;points=[];autosize=1;strokeColor=none;fillColor=none;" parent="1" vertex="1">
          <mxGeometry x="230" y="555" width="70" height="30" as="geometry" />
        </mxCell>
        <mxCell id="BthGRRnm2dixX5qSgWoB-185" style="edgeStyle=orthogonalEdgeStyle;rounded=0;orthogonalLoop=1;jettySize=auto;html=1;exitX=1;exitY=0.75;exitDx=0;exitDy=0;entryX=0;entryY=0.5;entryDx=0;entryDy=0;" parent="1" source="BthGRRnm2dixX5qSgWoB-150" target="BthGRRnm2dixX5qSgWoB-184" edge="1">
          <mxGeometry relative="1" as="geometry" />
        </mxCell>
        <mxCell id="BthGRRnm2dixX5qSgWoB-186" style="edgeStyle=orthogonalEdgeStyle;rounded=0;orthogonalLoop=1;jettySize=auto;html=1;exitX=1;exitY=0.75;exitDx=0;exitDy=0;entryX=0;entryY=0.75;entryDx=0;entryDy=0;" parent="1" source="BthGRRnm2dixX5qSgWoB-150" target="BthGRRnm2dixX5qSgWoB-171" edge="1">
          <mxGeometry relative="1" as="geometry" />
        </mxCell>
        <mxCell id="BthGRRnm2dixX5qSgWoB-187" style="edgeStyle=orthogonalEdgeStyle;rounded=0;orthogonalLoop=1;jettySize=auto;html=1;exitX=1;exitY=0.75;exitDx=0;exitDy=0;entryX=0;entryY=0.75;entryDx=0;entryDy=0;" parent="1" source="BthGRRnm2dixX5qSgWoB-150" target="BthGRRnm2dixX5qSgWoB-170" edge="1">
          <mxGeometry relative="1" as="geometry" />
        </mxCell>
        <mxCell id="BthGRRnm2dixX5qSgWoB-188" style="edgeStyle=orthogonalEdgeStyle;rounded=0;orthogonalLoop=1;jettySize=auto;html=1;exitX=1;exitY=0.25;exitDx=0;exitDy=0;entryX=0;entryY=0.5;entryDx=0;entryDy=0;" parent="1" source="BthGRRnm2dixX5qSgWoB-150" target="BthGRRnm2dixX5qSgWoB-170" edge="1">
          <mxGeometry relative="1" as="geometry">
            <Array as="points">
              <mxPoint x="2020" y="505" />
              <mxPoint x="2020" y="475" />
            </Array>
          </mxGeometry>
        </mxCell>
        <mxCell id="BthGRRnm2dixX5qSgWoB-189" style="edgeStyle=orthogonalEdgeStyle;rounded=0;orthogonalLoop=1;jettySize=auto;html=1;exitX=1;exitY=0.25;exitDx=0;exitDy=0;entryX=0;entryY=0.5;entryDx=0;entryDy=0;" parent="1" source="BthGRRnm2dixX5qSgWoB-150" target="BthGRRnm2dixX5qSgWoB-171" edge="1">
          <mxGeometry relative="1" as="geometry">
            <Array as="points">
              <mxPoint x="2020" y="505" />
              <mxPoint x="2020" y="600" />
            </Array>
          </mxGeometry>
        </mxCell>
        <mxCell id="BthGRRnm2dixX5qSgWoB-150" value="storeControl" style="rounded=0;whiteSpace=wrap;html=1;" parent="1" vertex="1">
          <mxGeometry x="1860" y="480" width="100" height="100" as="geometry" />
        </mxCell>
        <mxCell id="BthGRRnm2dixX5qSgWoB-151" style="edgeStyle=orthogonalEdgeStyle;rounded=0;orthogonalLoop=1;jettySize=auto;html=1;entryX=0;entryY=0.75;entryDx=0;entryDy=0;" parent="1" source="BthGRRnm2dixX5qSgWoB-105" target="BthGRRnm2dixX5qSgWoB-150" edge="1">
          <mxGeometry relative="1" as="geometry">
            <Array as="points">
              <mxPoint x="1320" y="510" />
              <mxPoint x="1320" y="610" />
              <mxPoint x="1800" y="610" />
              <mxPoint x="1800" y="555" />
            </Array>
          </mxGeometry>
        </mxCell>
        <mxCell id="BthGRRnm2dixX5qSgWoB-153" style="edgeStyle=orthogonalEdgeStyle;rounded=0;orthogonalLoop=1;jettySize=auto;html=1;entryX=0;entryY=0.25;entryDx=0;entryDy=0;" parent="1" source="BthGRRnm2dixX5qSgWoB-152" target="BthGRRnm2dixX5qSgWoB-150" edge="1">
          <mxGeometry relative="1" as="geometry" />
        </mxCell>
        <mxCell id="BthGRRnm2dixX5qSgWoB-152" value="st_type" style="text;html=1;align=center;verticalAlign=middle;resizable=0;points=[];autosize=1;strokeColor=none;fillColor=none;" parent="1" vertex="1">
          <mxGeometry x="1750" y="490" width="60" height="30" as="geometry" />
        </mxCell>
        <mxCell id="BthGRRnm2dixX5qSgWoB-155" value="wbe" style="text;html=1;align=center;verticalAlign=middle;resizable=0;points=[];autosize=1;strokeColor=none;fillColor=none;" parent="1" vertex="1">
          <mxGeometry x="1970" y="475" width="50" height="30" as="geometry" />
        </mxCell>
        <mxCell id="BthGRRnm2dixX5qSgWoB-157" value="wdata" style="text;html=1;align=center;verticalAlign=middle;resizable=0;points=[];autosize=1;strokeColor=none;fillColor=none;" parent="1" vertex="1">
          <mxGeometry x="1965" y="528" width="60" height="30" as="geometry" />
        </mxCell>
        <mxCell id="BthGRRnm2dixX5qSgWoB-161" value="" style="group" parent="1" vertex="1" connectable="0">
          <mxGeometry x="2121.5" y="130" width="50" height="100" as="geometry" />
        </mxCell>
        <mxCell id="BthGRRnm2dixX5qSgWoB-162" value="pc_reg" style="rounded=0;whiteSpace=wrap;html=1;" parent="BthGRRnm2dixX5qSgWoB-161" vertex="1">
          <mxGeometry width="50" height="100" as="geometry" />
        </mxCell>
        <mxCell id="BthGRRnm2dixX5qSgWoB-163" value="" style="triangle;whiteSpace=wrap;html=1;rotation=90;aspect=fixed;" parent="BthGRRnm2dixX5qSgWoB-161" vertex="1">
          <mxGeometry x="10" y="-10" width="30" height="50" as="geometry" />
        </mxCell>
        <mxCell id="BthGRRnm2dixX5qSgWoB-166" style="edgeStyle=orthogonalEdgeStyle;rounded=0;orthogonalLoop=1;jettySize=auto;html=1;exitX=1;exitY=0.5;exitDx=0;exitDy=0;entryX=0.6;entryY=1;entryDx=0;entryDy=0;entryPerimeter=0;" parent="1" source="BthGRRnm2dixX5qSgWoB-8" target="BthGRRnm2dixX5qSgWoB-14" edge="1">
          <mxGeometry relative="1" as="geometry">
            <Array as="points">
              <mxPoint x="720" y="180" />
              <mxPoint x="720" />
              <mxPoint x="30" />
              <mxPoint x="30" y="272" />
            </Array>
          </mxGeometry>
        </mxCell>
        <mxCell id="BthGRRnm2dixX5qSgWoB-167" value="pc_if" style="edgeLabel;html=1;align=center;verticalAlign=middle;resizable=0;points=[];" parent="BthGRRnm2dixX5qSgWoB-166" vertex="1" connectable="0">
          <mxGeometry x="0.9257" y="1" relative="1" as="geometry">
            <mxPoint y="-1" as="offset" />
          </mxGeometry>
        </mxCell>
        <mxCell id="BthGRRnm2dixX5qSgWoB-168" style="edgeStyle=orthogonalEdgeStyle;rounded=0;orthogonalLoop=1;jettySize=auto;html=1;exitX=1;exitY=0.5;exitDx=0;exitDy=0;entryX=0;entryY=0.5;entryDx=0;entryDy=0;" parent="1" source="BthGRRnm2dixX5qSgWoB-8" target="BthGRRnm2dixX5qSgWoB-162" edge="1">
          <mxGeometry relative="1" as="geometry" />
        </mxCell>
        <mxCell id="BthGRRnm2dixX5qSgWoB-169" value="BIOS" style="rounded=0;whiteSpace=wrap;html=1;" parent="1" vertex="1">
          <mxGeometry x="2121.5" y="330" width="90" height="90" as="geometry" />
        </mxCell>
        <mxCell id="BthGRRnm2dixX5qSgWoB-170" value="IMEM" style="rounded=0;whiteSpace=wrap;html=1;" parent="1" vertex="1">
          <mxGeometry x="2121.5" y="430" width="90" height="90" as="geometry" />
        </mxCell>
        <mxCell id="BthGRRnm2dixX5qSgWoB-214" style="edgeStyle=orthogonalEdgeStyle;rounded=0;orthogonalLoop=1;jettySize=auto;html=1;entryX=0.4;entryY=1;entryDx=0;entryDy=0;entryPerimeter=0;" parent="1" source="BthGRRnm2dixX5qSgWoB-171" target="BthGRRnm2dixX5qSgWoB-211" edge="1">
          <mxGeometry relative="1" as="geometry">
            <mxPoint x="2320" y="560" as="targetPoint" />
            <Array as="points">
              <mxPoint x="2280" y="600" />
              <mxPoint x="2280" y="538" />
            </Array>
          </mxGeometry>
        </mxCell>
        <mxCell id="BthGRRnm2dixX5qSgWoB-171" value="DMEM" style="rounded=0;whiteSpace=wrap;html=1;" parent="1" vertex="1">
          <mxGeometry x="2121.5" y="555" width="90" height="90" as="geometry" />
        </mxCell>
        <mxCell id="BthGRRnm2dixX5qSgWoB-172" value="" style="group" parent="1" vertex="1" connectable="0">
          <mxGeometry x="2120" y="-10" width="50" height="100" as="geometry" />
        </mxCell>
        <mxCell id="BthGRRnm2dixX5qSgWoB-173" value="csr" style="rounded=0;whiteSpace=wrap;html=1;" parent="BthGRRnm2dixX5qSgWoB-172" vertex="1">
          <mxGeometry width="50" height="100" as="geometry" />
        </mxCell>
        <mxCell id="BthGRRnm2dixX5qSgWoB-174" value="" style="triangle;whiteSpace=wrap;html=1;rotation=90;aspect=fixed;" parent="BthGRRnm2dixX5qSgWoB-172" vertex="1">
          <mxGeometry x="10" y="-10" width="30" height="50" as="geometry" />
        </mxCell>
        <mxCell id="BthGRRnm2dixX5qSgWoB-177" value="" style="group" parent="1" vertex="1" connectable="0">
          <mxGeometry x="1940" y="40" width="60" height="120" as="geometry" />
        </mxCell>
        <mxCell id="BthGRRnm2dixX5qSgWoB-175" value="" style="shape=trapezoid;perimeter=trapezoidPerimeter;whiteSpace=wrap;html=1;fixedSize=1;rotation=90;points=[[0,0,0,0,0],[0,0.25,0,0,0],[0,0.5,0,0,0],[0,0.75,0,0,0],[0,1,0,0,0],[0.25,0,0,0,0],[0.25,1,0,0,0],[0.5,0,0,0,0],[0.75,0,0,0,0],[0.75,1,0,0,0],[1,0,0,0,0],[1,0.25,0,0,0],[1,0.5,0,0,0],[1,0.75,0,0,0],[1,1,0,0,0]];" parent="BthGRRnm2dixX5qSgWoB-177" vertex="1">
          <mxGeometry x="-30" y="30" width="120" height="60" as="geometry" />
        </mxCell>
        <mxCell id="BthGRRnm2dixX5qSgWoB-176" value="imm_sel" style="text;html=1;align=center;verticalAlign=middle;whiteSpace=wrap;rounded=0;" parent="BthGRRnm2dixX5qSgWoB-177" vertex="1">
          <mxGeometry y="45" width="60" height="30" as="geometry" />
        </mxCell>
        <mxCell id="BthGRRnm2dixX5qSgWoB-178" style="edgeStyle=orthogonalEdgeStyle;rounded=0;orthogonalLoop=1;jettySize=auto;html=1;entryX=0;entryY=0.5;entryDx=0;entryDy=0;" parent="1" source="BthGRRnm2dixX5qSgWoB-175" target="BthGRRnm2dixX5qSgWoB-173" edge="1">
          <mxGeometry relative="1" as="geometry" />
        </mxCell>
        <mxCell id="BthGRRnm2dixX5qSgWoB-180" style="edgeStyle=orthogonalEdgeStyle;rounded=0;orthogonalLoop=1;jettySize=auto;html=1;entryX=0.25;entryY=1;entryDx=0;entryDy=0;entryPerimeter=0;" parent="1" source="BthGRRnm2dixX5qSgWoB-101" target="BthGRRnm2dixX5qSgWoB-175" edge="1">
          <mxGeometry relative="1" as="geometry">
            <mxPoint x="1910" y="90" as="targetPoint" />
            <Array as="points">
              <mxPoint x="1350" y="330" />
              <mxPoint x="1350" y="70" />
            </Array>
          </mxGeometry>
        </mxCell>
        <mxCell id="BthGRRnm2dixX5qSgWoB-181" style="edgeStyle=orthogonalEdgeStyle;rounded=0;orthogonalLoop=1;jettySize=auto;html=1;entryX=0.75;entryY=1;entryDx=0;entryDy=0;entryPerimeter=0;" parent="1" source="BthGRRnm2dixX5qSgWoB-94" target="BthGRRnm2dixX5qSgWoB-175" edge="1">
          <mxGeometry relative="1" as="geometry">
            <Array as="points">
              <mxPoint x="1840" y="635" />
              <mxPoint x="1840" y="130" />
            </Array>
          </mxGeometry>
        </mxCell>
        <mxCell id="BthGRRnm2dixX5qSgWoB-183" style="edgeStyle=orthogonalEdgeStyle;rounded=0;orthogonalLoop=1;jettySize=auto;html=1;entryX=0;entryY=0.25;entryDx=0;entryDy=0;" parent="1" source="BthGRRnm2dixX5qSgWoB-182" target="BthGRRnm2dixX5qSgWoB-173" edge="1">
          <mxGeometry relative="1" as="geometry" />
        </mxCell>
        <mxCell id="BthGRRnm2dixX5qSgWoB-182" value="csr_we" style="text;html=1;align=center;verticalAlign=middle;resizable=0;points=[];autosize=1;strokeColor=none;fillColor=none;" parent="1" vertex="1">
          <mxGeometry x="1940" width="60" height="30" as="geometry" />
        </mxCell>
        <mxCell id="BthGRRnm2dixX5qSgWoB-184" value="IO" style="rounded=0;whiteSpace=wrap;html=1;" parent="1" vertex="1">
          <mxGeometry x="2120" y="670" width="90" height="90" as="geometry" />
        </mxCell>
        <mxCell id="BthGRRnm2dixX5qSgWoB-192" style="edgeStyle=orthogonalEdgeStyle;rounded=0;orthogonalLoop=1;jettySize=auto;html=1;entryX=0;entryY=0.75;entryDx=0;entryDy=0;" parent="1" source="BthGRRnm2dixX5qSgWoB-191" target="BthGRRnm2dixX5qSgWoB-184" edge="1">
          <mxGeometry relative="1" as="geometry" />
        </mxCell>
        <mxCell id="BthGRRnm2dixX5qSgWoB-191" value="uart_tx_data_in_valid" style="text;html=1;align=center;verticalAlign=middle;resizable=0;points=[];autosize=1;strokeColor=none;fillColor=none;" parent="1" vertex="1">
          <mxGeometry x="1950" y="730" width="140" height="30" as="geometry" />
        </mxCell>
        <mxCell id="BthGRRnm2dixX5qSgWoB-193" value="uart_tx_data_in&amp;nbsp;" style="text;html=1;align=center;verticalAlign=middle;resizable=0;points=[];autosize=1;strokeColor=none;fillColor=none;" parent="1" vertex="1">
          <mxGeometry x="1940" y="680" width="110" height="30" as="geometry" />
        </mxCell>
        <mxCell id="BthGRRnm2dixX5qSgWoB-207" style="edgeStyle=elbowEdgeStyle;rounded=0;orthogonalLoop=1;jettySize=auto;html=1;exitX=0.5;exitY=0;exitDx=0;exitDy=0;exitPerimeter=0;entryX=0;entryY=0.5;entryDx=0;entryDy=0;" parent="1" source="BthGRRnm2dixX5qSgWoB-65" target="BthGRRnm2dixX5qSgWoB-82" edge="1">
          <mxGeometry relative="1" as="geometry">
            <Array as="points">
              <mxPoint x="895" y="630" />
            </Array>
          </mxGeometry>
        </mxCell>
        <mxCell id="BthGRRnm2dixX5qSgWoB-209" value="CSR 仅测试时用作调试寄存器（只写）" style="text;strokeColor=none;fillColor=none;html=1;fontSize=24;fontStyle=1;verticalAlign=middle;align=center;" parent="1" vertex="1">
          <mxGeometry x="1950" y="-150" width="421.5" height="168.6" as="geometry" />
        </mxCell>
        <mxCell id="BthGRRnm2dixX5qSgWoB-210" value="" style="group" parent="1" vertex="1" connectable="0">
          <mxGeometry x="2340" y="490" width="60" height="120" as="geometry" />
        </mxCell>
        <mxCell id="BthGRRnm2dixX5qSgWoB-211" value="" style="shape=trapezoid;perimeter=trapezoidPerimeter;whiteSpace=wrap;html=1;fixedSize=1;rotation=90;points=[[0,0,0,0,0],[0,0.25,0,0,0],[0,0.5,0,0,0],[0,0.75,0,0,0],[0,1,0,0,0],[0.2,1,0,0,0],[0.25,0,0,0,0],[0.4,1,0,0,0],[0.5,0,0,0,0],[0.6,1,0,0,0],[0.75,0,0,0,0],[0.8,1,0,0,0],[1,0,0,0,0],[1,0.25,0,0,0],[1,0.5,0,0,0],[1,0.75,0,0,0],[1,1,0,0,0]];" parent="BthGRRnm2dixX5qSgWoB-210" vertex="1">
          <mxGeometry x="-30" y="30" width="120" height="60" as="geometry" />
        </mxCell>
        <mxCell id="BthGRRnm2dixX5qSgWoB-212" value="mem_sel" style="text;html=1;align=center;verticalAlign=middle;whiteSpace=wrap;rounded=0;" parent="BthGRRnm2dixX5qSgWoB-210" vertex="1">
          <mxGeometry y="45" width="60" height="30" as="geometry" />
        </mxCell>
        <mxCell id="BthGRRnm2dixX5qSgWoB-215" style="edgeStyle=orthogonalEdgeStyle;rounded=0;orthogonalLoop=1;jettySize=auto;html=1;entryX=0.6;entryY=1;entryDx=0;entryDy=0;entryPerimeter=0;" parent="1" source="BthGRRnm2dixX5qSgWoB-171" target="BthGRRnm2dixX5qSgWoB-211" edge="1">
          <mxGeometry relative="1" as="geometry">
            <Array as="points">
              <mxPoint x="2280" y="600" />
              <mxPoint x="2280" y="562" />
            </Array>
          </mxGeometry>
        </mxCell>
        <mxCell id="BthGRRnm2dixX5qSgWoB-216" style="edgeStyle=orthogonalEdgeStyle;rounded=0;orthogonalLoop=1;jettySize=auto;html=1;entryX=0.8;entryY=1;entryDx=0;entryDy=0;entryPerimeter=0;" parent="1" source="BthGRRnm2dixX5qSgWoB-184" target="BthGRRnm2dixX5qSgWoB-211" edge="1">
          <mxGeometry relative="1" as="geometry">
            <Array as="points">
              <mxPoint x="2280" y="715" />
              <mxPoint x="2280" y="586" />
            </Array>
          </mxGeometry>
        </mxCell>
        <mxCell id="BthGRRnm2dixX5qSgWoB-230" style="edgeStyle=orthogonalEdgeStyle;rounded=0;orthogonalLoop=1;jettySize=auto;html=1;entryX=0.8;entryY=1;entryDx=0;entryDy=0;entryPerimeter=0;" parent="1" source="BthGRRnm2dixX5qSgWoB-217" target="BthGRRnm2dixX5qSgWoB-235" edge="1">
          <mxGeometry relative="1" as="geometry">
            <mxPoint x="2680" y="448" as="targetPoint" />
          </mxGeometry>
        </mxCell>
        <mxCell id="BthGRRnm2dixX5qSgWoB-217" value="loadControl" style="rounded=0;whiteSpace=wrap;html=1;" parent="1" vertex="1">
          <mxGeometry x="2520" y="398" width="100" height="100" as="geometry" />
        </mxCell>
        <mxCell id="BthGRRnm2dixX5qSgWoB-218" value="Write Back" style="text;strokeColor=none;fillColor=none;html=1;fontSize=30;fontStyle=1;verticalAlign=middle;align=center;" parent="1" vertex="1">
          <mxGeometry x="2540" y="910" width="275" height="110" as="geometry" />
        </mxCell>
        <mxCell id="BthGRRnm2dixX5qSgWoB-219" value="" style="group" parent="1" vertex="1" connectable="0">
          <mxGeometry x="2121.5" y="230" width="50" height="100" as="geometry" />
        </mxCell>
        <mxCell id="BthGRRnm2dixX5qSgWoB-220" value="alu_reg" style="rounded=0;whiteSpace=wrap;html=1;" parent="BthGRRnm2dixX5qSgWoB-219" vertex="1">
          <mxGeometry width="50" height="100" as="geometry" />
        </mxCell>
        <mxCell id="BthGRRnm2dixX5qSgWoB-221" value="" style="triangle;whiteSpace=wrap;html=1;rotation=90;aspect=fixed;" parent="BthGRRnm2dixX5qSgWoB-219" vertex="1">
          <mxGeometry x="10" y="-10" width="30" height="50" as="geometry" />
        </mxCell>
        <mxCell id="BthGRRnm2dixX5qSgWoB-222" style="edgeStyle=orthogonalEdgeStyle;rounded=0;orthogonalLoop=1;jettySize=auto;html=1;exitX=1;exitY=0.5;exitDx=0;exitDy=0;entryX=0.2;entryY=1;entryDx=0;entryDy=0;entryPerimeter=0;" parent="1" source="BthGRRnm2dixX5qSgWoB-169" target="BthGRRnm2dixX5qSgWoB-211" edge="1">
          <mxGeometry relative="1" as="geometry" />
        </mxCell>
        <mxCell id="BthGRRnm2dixX5qSgWoB-226" style="edgeStyle=orthogonalEdgeStyle;rounded=0;orthogonalLoop=1;jettySize=auto;html=1;exitX=1;exitY=0.5;exitDx=0;exitDy=0;entryX=0;entryY=0.5;entryDx=0;entryDy=0;" parent="1" source="BthGRRnm2dixX5qSgWoB-212" target="BthGRRnm2dixX5qSgWoB-217" edge="1">
          <mxGeometry relative="1" as="geometry" />
        </mxCell>
        <mxCell id="BthGRRnm2dixX5qSgWoB-227" style="edgeStyle=orthogonalEdgeStyle;rounded=0;orthogonalLoop=1;jettySize=auto;html=1;exitX=1;exitY=0.5;exitDx=0;exitDy=0;entryX=0;entryY=0.25;entryDx=0;entryDy=0;" parent="1" source="BthGRRnm2dixX5qSgWoB-220" target="BthGRRnm2dixX5qSgWoB-217" edge="1">
          <mxGeometry relative="1" as="geometry" />
        </mxCell>
        <mxCell id="BthGRRnm2dixX5qSgWoB-229" style="edgeStyle=orthogonalEdgeStyle;rounded=0;orthogonalLoop=1;jettySize=auto;html=1;entryX=0.5;entryY=0;entryDx=0;entryDy=0;" parent="1" source="BthGRRnm2dixX5qSgWoB-228" target="BthGRRnm2dixX5qSgWoB-217" edge="1">
          <mxGeometry relative="1" as="geometry" />
        </mxCell>
        <mxCell id="BthGRRnm2dixX5qSgWoB-228" value="ld_type" style="text;html=1;align=center;verticalAlign=middle;resizable=0;points=[];autosize=1;strokeColor=none;fillColor=none;" parent="1" vertex="1">
          <mxGeometry x="2540" y="328" width="60" height="30" as="geometry" />
        </mxCell>
        <mxCell id="BthGRRnm2dixX5qSgWoB-232" value="+4" style="whiteSpace=wrap;html=1;" parent="1" vertex="1">
          <mxGeometry x="2520" y="140" width="80" height="80" as="geometry" />
        </mxCell>
        <mxCell id="BthGRRnm2dixX5qSgWoB-233" style="edgeStyle=orthogonalEdgeStyle;rounded=0;orthogonalLoop=1;jettySize=auto;html=1;exitX=1;exitY=0.5;exitDx=0;exitDy=0;entryX=0;entryY=0.5;entryDx=0;entryDy=0;" parent="1" source="BthGRRnm2dixX5qSgWoB-162" target="BthGRRnm2dixX5qSgWoB-232" edge="1">
          <mxGeometry relative="1" as="geometry" />
        </mxCell>
        <mxCell id="BthGRRnm2dixX5qSgWoB-234" value="" style="group" parent="1" vertex="1" connectable="0">
          <mxGeometry x="2790" y="255" width="60" height="120" as="geometry" />
        </mxCell>
        <mxCell id="BthGRRnm2dixX5qSgWoB-235" value="" style="shape=trapezoid;perimeter=trapezoidPerimeter;whiteSpace=wrap;html=1;fixedSize=1;rotation=90;points=[[0,0,0,0,0],[0,0.25,0,0,0],[0,0.5,0,0,0],[0,0.75,0,0,0],[0,1,0,0,0],[0.2,1,0,0,0],[0.25,0,0,0,0],[0.4,1,0,0,0],[0.5,0,0,0,0],[0.6,1,0,0,0],[0.75,0,0,0,0],[0.8,1,0,0,0],[1,0,0,0,0],[1,0.25,0,0,0],[1,0.5,0,0,0],[1,0.75,0,0,0],[1,1,0,0,0]];" parent="BthGRRnm2dixX5qSgWoB-234" vertex="1">
          <mxGeometry x="-30" y="30" width="120" height="60" as="geometry" />
        </mxCell>
        <mxCell id="BthGRRnm2dixX5qSgWoB-236" value="wb_sel" style="text;html=1;align=center;verticalAlign=middle;whiteSpace=wrap;rounded=0;" parent="BthGRRnm2dixX5qSgWoB-234" vertex="1">
          <mxGeometry y="45" width="60" height="30" as="geometry" />
        </mxCell>
        <mxCell id="BthGRRnm2dixX5qSgWoB-237" style="edgeStyle=orthogonalEdgeStyle;rounded=0;orthogonalLoop=1;jettySize=auto;html=1;exitX=1;exitY=0.5;exitDx=0;exitDy=0;entryX=0;entryY=0.75;entryDx=0;entryDy=0;" parent="1" source="BthGRRnm2dixX5qSgWoB-220" target="BthGRRnm2dixX5qSgWoB-236" edge="1">
          <mxGeometry relative="1" as="geometry" />
        </mxCell>
        <mxCell id="BthGRRnm2dixX5qSgWoB-238" style="edgeStyle=orthogonalEdgeStyle;rounded=0;orthogonalLoop=1;jettySize=auto;html=1;entryX=0.4;entryY=1;entryDx=0;entryDy=0;entryPerimeter=0;" parent="1" source="BthGRRnm2dixX5qSgWoB-232" target="BthGRRnm2dixX5qSgWoB-235" edge="1">
          <mxGeometry relative="1" as="geometry" />
        </mxCell>
        <mxCell id="BthGRRnm2dixX5qSgWoB-239" style="edgeStyle=orthogonalEdgeStyle;rounded=0;orthogonalLoop=1;jettySize=auto;html=1;exitX=1;exitY=0.5;exitDx=0;exitDy=0;entryX=0.2;entryY=1;entryDx=0;entryDy=0;entryPerimeter=0;" parent="1" source="BthGRRnm2dixX5qSgWoB-232" target="BthGRRnm2dixX5qSgWoB-235" edge="1">
          <mxGeometry relative="1" as="geometry" />
        </mxCell>
        <mxCell id="BthGRRnm2dixX5qSgWoB-241" value="Reg File" style="rounded=0;whiteSpace=wrap;html=1;" parent="1" vertex="1">
          <mxGeometry x="2970" y="300" width="90" height="150" as="geometry" />
        </mxCell>
        <mxCell id="BthGRRnm2dixX5qSgWoB-242" style="edgeStyle=orthogonalEdgeStyle;rounded=0;orthogonalLoop=1;jettySize=auto;html=1;entryX=0;entryY=0.25;entryDx=0;entryDy=0;" parent="1" source="BthGRRnm2dixX5qSgWoB-236" target="BthGRRnm2dixX5qSgWoB-241" edge="1">
          <mxGeometry relative="1" as="geometry">
            <Array as="points">
              <mxPoint x="2880" y="315" />
              <mxPoint x="2880" y="338" />
            </Array>
          </mxGeometry>
        </mxCell>
        <mxCell id="BthGRRnm2dixX5qSgWoB-240" style="edgeStyle=orthogonalEdgeStyle;rounded=0;orthogonalLoop=1;jettySize=auto;html=1;entryX=0;entryY=0.5;entryDx=0;entryDy=0;" parent="1" source="BthGRRnm2dixX5qSgWoB-82" target="BthGRRnm2dixX5qSgWoB-241" edge="1">
          <mxGeometry relative="1" as="geometry">
            <mxPoint x="3000" y="520" as="targetPoint" />
            <Array as="points">
              <mxPoint x="2880" y="830" />
              <mxPoint x="2880" y="375" />
            </Array>
          </mxGeometry>
        </mxCell>
        <mxCell id="BthGRRnm2dixX5qSgWoB-244" style="edgeStyle=orthogonalEdgeStyle;rounded=0;orthogonalLoop=1;jettySize=auto;html=1;entryX=0;entryY=0.75;entryDx=0;entryDy=0;" parent="1" source="BthGRRnm2dixX5qSgWoB-243" target="BthGRRnm2dixX5qSgWoB-241" edge="1">
          <mxGeometry relative="1" as="geometry" />
        </mxCell>
        <mxCell id="BthGRRnm2dixX5qSgWoB-243" value="we" style="text;html=1;align=center;verticalAlign=middle;resizable=0;points=[];autosize=1;strokeColor=none;fillColor=none;" parent="1" vertex="1">
          <mxGeometry x="2890" y="415" width="40" height="30" as="geometry" />
        </mxCell>
        <mxCell id="BthGRRnm2dixX5qSgWoB-245" style="edgeStyle=orthogonalEdgeStyle;rounded=0;orthogonalLoop=1;jettySize=auto;html=1;entryX=0.25;entryY=1;entryDx=0;entryDy=0;entryPerimeter=0;exitX=1;exitY=0.5;exitDx=0;exitDy=0;" parent="1" source="BthGRRnm2dixX5qSgWoB-236" target="BthGRRnm2dixX5qSgWoB-101" edge="1">
          <mxGeometry relative="1" as="geometry">
            <mxPoint x="2860" y="310" as="sourcePoint" />
            <Array as="points">
              <mxPoint x="2880" y="315" />
              <mxPoint x="2880" y="-150" />
              <mxPoint x="1190" y="-150" />
              <mxPoint x="1190" y="300" />
            </Array>
          </mxGeometry>
        </mxCell>
        <mxCell id="BthGRRnm2dixX5qSgWoB-247" style="edgeStyle=orthogonalEdgeStyle;rounded=0;orthogonalLoop=1;jettySize=auto;html=1;entryX=0.75;entryY=1;entryDx=0;entryDy=0;entryPerimeter=0;exitX=1;exitY=0.5;exitDx=0;exitDy=0;" parent="1" source="BthGRRnm2dixX5qSgWoB-236" target="BthGRRnm2dixX5qSgWoB-103" edge="1">
          <mxGeometry relative="1" as="geometry">
            <Array as="points">
              <mxPoint x="2880" y="315" />
              <mxPoint x="2880" y="-150" />
              <mxPoint x="1190" y="-150" />
              <mxPoint x="1190" y="540" />
            </Array>
          </mxGeometry>
        </mxCell>
      </root>
    </mxGraphModel>
  </diagram>
</mxfile>
